<mxfile host="Electron" agent="Mozilla/5.0 (Windows NT 10.0; Win64; x64) AppleWebKit/537.36 (KHTML, like Gecko) draw.io/26.0.16 Chrome/132.0.6834.196 Electron/34.2.0 Safari/537.36" version="26.0.16">
  <diagram name="Page-1" id="vhHkQ2Hb0ev-NZiC7_sB">
    <mxGraphModel dx="1980" dy="1116" grid="1" gridSize="10" guides="1" tooltips="1" connect="1" arrows="1" fold="1" page="1" pageScale="1" pageWidth="1600" pageHeight="1200" math="0" shadow="0">
      <root>
        <mxCell id="0" />
        <mxCell id="1" parent="0" />
        <mxCell id="FpzBXiF51fYtFxmnO7EW-1" value="crm_cust_info" style="swimlane;fontStyle=0;childLayout=stackLayout;horizontal=1;startSize=30;horizontalStack=0;resizeParent=1;resizeParentMax=0;resizeLast=0;collapsible=1;marginBottom=0;whiteSpace=wrap;html=1;rounded=1;fontSize=26;fillColor=#dae8fc;strokeColor=#6c8ebf;" vertex="1" parent="1">
          <mxGeometry x="770" y="425" width="280" height="130" as="geometry">
            <mxRectangle x="360" y="200" width="60" height="30" as="alternateBounds" />
          </mxGeometry>
        </mxCell>
        <mxCell id="FpzBXiF51fYtFxmnO7EW-2" value="cst_id" style="text;strokeColor=none;fillColor=none;align=left;verticalAlign=middle;spacingLeft=4;spacingRight=4;overflow=hidden;points=[[0,0.5],[1,0.5]];portConstraint=eastwest;rotatable=0;whiteSpace=wrap;html=1;rounded=1;fontSize=26;" vertex="1" parent="FpzBXiF51fYtFxmnO7EW-1">
          <mxGeometry y="30" width="280" height="50" as="geometry" />
        </mxCell>
        <mxCell id="FpzBXiF51fYtFxmnO7EW-24" value="cst_key" style="text;strokeColor=none;fillColor=none;align=left;verticalAlign=middle;spacingLeft=4;spacingRight=4;overflow=hidden;points=[[0,0.5],[1,0.5]];portConstraint=eastwest;rotatable=0;whiteSpace=wrap;html=1;rounded=1;fontSize=26;" vertex="1" parent="FpzBXiF51fYtFxmnO7EW-1">
          <mxGeometry y="80" width="280" height="50" as="geometry" />
        </mxCell>
        <mxCell id="FpzBXiF51fYtFxmnO7EW-5" value="&lt;font style=&quot;font-size: 19px;&quot;&gt;Customer information&lt;/font&gt;" style="text;html=1;align=center;verticalAlign=middle;whiteSpace=wrap;rounded=0;" vertex="1" parent="1">
          <mxGeometry x="810" y="395" width="200" height="30" as="geometry" />
        </mxCell>
        <mxCell id="FpzBXiF51fYtFxmnO7EW-7" value="&lt;font style=&quot;font-size: 36px;&quot;&gt;&lt;b style=&quot;&quot;&gt;Integration Model&amp;nbsp;&lt;/b&gt;&lt;/font&gt;" style="text;html=1;align=center;verticalAlign=middle;whiteSpace=wrap;rounded=0;" vertex="1" parent="1">
          <mxGeometry x="320" y="120" width="340" height="40" as="geometry" />
        </mxCell>
        <mxCell id="FpzBXiF51fYtFxmnO7EW-8" value="&lt;font style=&quot;font-size: 18px;&quot;&gt;(How all the tables are related)&lt;/font&gt;" style="text;html=1;align=center;verticalAlign=middle;whiteSpace=wrap;rounded=0;" vertex="1" parent="1">
          <mxGeometry x="630" y="130" width="270" height="30" as="geometry" />
        </mxCell>
        <mxCell id="FpzBXiF51fYtFxmnO7EW-10" value="crm_prd_info" style="swimlane;fontStyle=0;childLayout=stackLayout;horizontal=1;startSize=30;horizontalStack=0;resizeParent=1;resizeParentMax=0;resizeLast=0;collapsible=1;marginBottom=0;whiteSpace=wrap;html=1;rounded=1;fontSize=26;fillColor=#dae8fc;strokeColor=#6c8ebf;" vertex="1" parent="1">
          <mxGeometry x="770" y="705" width="280" height="80" as="geometry">
            <mxRectangle x="360" y="200" width="60" height="30" as="alternateBounds" />
          </mxGeometry>
        </mxCell>
        <mxCell id="FpzBXiF51fYtFxmnO7EW-11" value="prd_key" style="text;strokeColor=none;fillColor=none;align=left;verticalAlign=middle;spacingLeft=4;spacingRight=4;overflow=hidden;points=[[0,0.5],[1,0.5]];portConstraint=eastwest;rotatable=0;whiteSpace=wrap;html=1;rounded=1;fontSize=26;" vertex="1" parent="FpzBXiF51fYtFxmnO7EW-10">
          <mxGeometry y="30" width="280" height="50" as="geometry" />
        </mxCell>
        <mxCell id="FpzBXiF51fYtFxmnO7EW-12" value="&lt;font style=&quot;font-size: 19px;&quot;&gt;Current and history product info&lt;/font&gt;" style="text;html=1;align=center;verticalAlign=middle;whiteSpace=wrap;rounded=0;" vertex="1" parent="1">
          <mxGeometry x="730" y="675" width="360" height="30" as="geometry" />
        </mxCell>
        <mxCell id="FpzBXiF51fYtFxmnO7EW-14" value="crm_sales_details" style="swimlane;fontStyle=0;childLayout=stackLayout;horizontal=1;startSize=30;horizontalStack=0;resizeParent=1;resizeParentMax=0;resizeLast=0;collapsible=1;marginBottom=0;whiteSpace=wrap;html=1;rounded=1;fontSize=26;fillColor=#dae8fc;strokeColor=#6c8ebf;" vertex="1" parent="1">
          <mxGeometry x="290" y="540" width="280" height="130" as="geometry">
            <mxRectangle x="360" y="200" width="60" height="30" as="alternateBounds" />
          </mxGeometry>
        </mxCell>
        <mxCell id="FpzBXiF51fYtFxmnO7EW-18" value="sls_cst_id" style="text;strokeColor=none;fillColor=none;align=left;verticalAlign=middle;spacingLeft=4;spacingRight=4;overflow=hidden;points=[[0,0.5],[1,0.5]];portConstraint=eastwest;rotatable=0;whiteSpace=wrap;html=1;rounded=1;fontSize=26;" vertex="1" parent="FpzBXiF51fYtFxmnO7EW-14">
          <mxGeometry y="30" width="280" height="50" as="geometry" />
        </mxCell>
        <mxCell id="FpzBXiF51fYtFxmnO7EW-15" value="sls_prd_id" style="text;strokeColor=none;fillColor=none;align=left;verticalAlign=middle;spacingLeft=4;spacingRight=4;overflow=hidden;points=[[0,0.5],[1,0.5]];portConstraint=eastwest;rotatable=0;whiteSpace=wrap;html=1;rounded=1;fontSize=26;" vertex="1" parent="FpzBXiF51fYtFxmnO7EW-14">
          <mxGeometry y="80" width="280" height="50" as="geometry" />
        </mxCell>
        <mxCell id="FpzBXiF51fYtFxmnO7EW-16" value="&lt;font style=&quot;font-size: 19px;&quot;&gt;Transactional records about Sales &amp;amp; Orders&lt;/font&gt;" style="text;html=1;align=center;verticalAlign=middle;whiteSpace=wrap;rounded=0;" vertex="1" parent="1">
          <mxGeometry x="290" y="500" width="280" height="40" as="geometry" />
        </mxCell>
        <mxCell id="FpzBXiF51fYtFxmnO7EW-19" style="edgeStyle=orthogonalEdgeStyle;rounded=0;orthogonalLoop=1;jettySize=auto;html=1;entryX=0;entryY=0.5;entryDx=0;entryDy=0;" edge="1" parent="1" source="FpzBXiF51fYtFxmnO7EW-18" target="FpzBXiF51fYtFxmnO7EW-2">
          <mxGeometry relative="1" as="geometry" />
        </mxCell>
        <mxCell id="FpzBXiF51fYtFxmnO7EW-20" style="edgeStyle=orthogonalEdgeStyle;rounded=0;orthogonalLoop=1;jettySize=auto;html=1;entryX=0;entryY=0.5;entryDx=0;entryDy=0;" edge="1" parent="1" source="FpzBXiF51fYtFxmnO7EW-15" target="FpzBXiF51fYtFxmnO7EW-11">
          <mxGeometry relative="1" as="geometry">
            <mxPoint x="620" y="645" as="targetPoint" />
          </mxGeometry>
        </mxCell>
        <mxCell id="FpzBXiF51fYtFxmnO7EW-21" value="erp_cust_az12" style="swimlane;fontStyle=0;childLayout=stackLayout;horizontal=1;startSize=30;horizontalStack=0;resizeParent=1;resizeParentMax=0;resizeLast=0;collapsible=1;marginBottom=0;whiteSpace=wrap;html=1;rounded=1;fontSize=26;fillColor=#ffe6cc;strokeColor=#d79b00;" vertex="1" parent="1">
          <mxGeometry x="1290" y="380" width="280" height="80" as="geometry">
            <mxRectangle x="360" y="200" width="60" height="30" as="alternateBounds" />
          </mxGeometry>
        </mxCell>
        <mxCell id="FpzBXiF51fYtFxmnO7EW-22" value="cid" style="text;strokeColor=none;fillColor=none;align=left;verticalAlign=middle;spacingLeft=4;spacingRight=4;overflow=hidden;points=[[0,0.5],[1,0.5]];portConstraint=eastwest;rotatable=0;whiteSpace=wrap;html=1;rounded=1;fontSize=26;" vertex="1" parent="FpzBXiF51fYtFxmnO7EW-21">
          <mxGeometry y="30" width="280" height="50" as="geometry" />
        </mxCell>
        <mxCell id="FpzBXiF51fYtFxmnO7EW-23" value="&lt;font style=&quot;font-size: 19px;&quot;&gt;Extra customer info (Birthdates)&lt;/font&gt;" style="text;html=1;align=center;verticalAlign=middle;whiteSpace=wrap;rounded=0;" vertex="1" parent="1">
          <mxGeometry x="1250" y="350" width="360" height="30" as="geometry" />
        </mxCell>
        <mxCell id="FpzBXiF51fYtFxmnO7EW-25" style="edgeStyle=orthogonalEdgeStyle;rounded=0;orthogonalLoop=1;jettySize=auto;html=1;entryX=0;entryY=0.5;entryDx=0;entryDy=0;" edge="1" parent="1" source="FpzBXiF51fYtFxmnO7EW-24" target="FpzBXiF51fYtFxmnO7EW-22">
          <mxGeometry relative="1" as="geometry">
            <Array as="points">
              <mxPoint x="1230" y="520" />
              <mxPoint x="1230" y="435" />
            </Array>
          </mxGeometry>
        </mxCell>
        <mxCell id="FpzBXiF51fYtFxmnO7EW-26" value="erp_loc_a101" style="swimlane;fontStyle=0;childLayout=stackLayout;horizontal=1;startSize=30;horizontalStack=0;resizeParent=1;resizeParentMax=0;resizeLast=0;collapsible=1;marginBottom=0;whiteSpace=wrap;html=1;rounded=1;fontSize=26;fillColor=#ffe6cc;strokeColor=#d79b00;" vertex="1" parent="1">
          <mxGeometry x="1290" y="540" width="280" height="80" as="geometry">
            <mxRectangle x="360" y="200" width="60" height="30" as="alternateBounds" />
          </mxGeometry>
        </mxCell>
        <mxCell id="FpzBXiF51fYtFxmnO7EW-27" value="cid" style="text;strokeColor=none;fillColor=none;align=left;verticalAlign=middle;spacingLeft=4;spacingRight=4;overflow=hidden;points=[[0,0.5],[1,0.5]];portConstraint=eastwest;rotatable=0;whiteSpace=wrap;html=1;rounded=1;fontSize=26;" vertex="1" parent="FpzBXiF51fYtFxmnO7EW-26">
          <mxGeometry y="30" width="280" height="50" as="geometry" />
        </mxCell>
        <mxCell id="FpzBXiF51fYtFxmnO7EW-28" value="&lt;font style=&quot;font-size: 19px;&quot;&gt;Customer location (Countries)&lt;/font&gt;" style="text;html=1;align=center;verticalAlign=middle;whiteSpace=wrap;rounded=0;" vertex="1" parent="1">
          <mxGeometry x="1250" y="510" width="360" height="30" as="geometry" />
        </mxCell>
        <mxCell id="FpzBXiF51fYtFxmnO7EW-31" style="edgeStyle=orthogonalEdgeStyle;rounded=0;orthogonalLoop=1;jettySize=auto;html=1;" edge="1" parent="1" source="FpzBXiF51fYtFxmnO7EW-24" target="FpzBXiF51fYtFxmnO7EW-27">
          <mxGeometry relative="1" as="geometry">
            <Array as="points">
              <mxPoint x="1230" y="520" />
              <mxPoint x="1230" y="595" />
            </Array>
          </mxGeometry>
        </mxCell>
        <mxCell id="FpzBXiF51fYtFxmnO7EW-32" value="erp_px_cat_g1v2" style="swimlane;fontStyle=0;childLayout=stackLayout;horizontal=1;startSize=30;horizontalStack=0;resizeParent=1;resizeParentMax=0;resizeLast=0;collapsible=1;marginBottom=0;whiteSpace=wrap;html=1;rounded=1;fontSize=26;fillColor=#ffe6cc;strokeColor=#d79b00;" vertex="1" parent="1">
          <mxGeometry x="1290" y="755" width="280" height="80" as="geometry">
            <mxRectangle x="360" y="200" width="60" height="30" as="alternateBounds" />
          </mxGeometry>
        </mxCell>
        <mxCell id="FpzBXiF51fYtFxmnO7EW-33" value="id" style="text;strokeColor=none;fillColor=none;align=left;verticalAlign=middle;spacingLeft=4;spacingRight=4;overflow=hidden;points=[[0,0.5],[1,0.5]];portConstraint=eastwest;rotatable=0;whiteSpace=wrap;html=1;rounded=1;fontSize=26;" vertex="1" parent="FpzBXiF51fYtFxmnO7EW-32">
          <mxGeometry y="30" width="280" height="50" as="geometry" />
        </mxCell>
        <mxCell id="FpzBXiF51fYtFxmnO7EW-34" value="&lt;font style=&quot;font-size: 19px;&quot;&gt;Extra customer info (Birthdates)&lt;/font&gt;" style="text;html=1;align=center;verticalAlign=middle;whiteSpace=wrap;rounded=0;" vertex="1" parent="1">
          <mxGeometry x="1250" y="725" width="360" height="30" as="geometry" />
        </mxCell>
        <mxCell id="FpzBXiF51fYtFxmnO7EW-35" style="edgeStyle=orthogonalEdgeStyle;rounded=0;orthogonalLoop=1;jettySize=auto;html=1;" edge="1" parent="1" source="FpzBXiF51fYtFxmnO7EW-11" target="FpzBXiF51fYtFxmnO7EW-33">
          <mxGeometry relative="1" as="geometry">
            <Array as="points">
              <mxPoint x="1230" y="755" />
              <mxPoint x="1230" y="805" />
            </Array>
          </mxGeometry>
        </mxCell>
        <mxCell id="FpzBXiF51fYtFxmnO7EW-36" value="" style="rounded=1;whiteSpace=wrap;html=1;fillColor=none;" vertex="1" parent="1">
          <mxGeometry x="250" y="300" width="880" height="610" as="geometry" />
        </mxCell>
        <mxCell id="FpzBXiF51fYtFxmnO7EW-37" value="" style="rounded=1;whiteSpace=wrap;html=1;fillColor=none;" vertex="1" parent="1">
          <mxGeometry x="1210" y="300" width="880" height="610" as="geometry" />
        </mxCell>
        <mxCell id="FpzBXiF51fYtFxmnO7EW-38" value="&lt;font style=&quot;font-size: 35px;&quot;&gt;&lt;b&gt;CRM&lt;/b&gt;&lt;/font&gt;" style="rounded=1;whiteSpace=wrap;html=1;fillColor=#dae8fc;strokeColor=#6c8ebf;" vertex="1" parent="1">
          <mxGeometry x="610" y="260" width="160" height="60" as="geometry" />
        </mxCell>
        <mxCell id="FpzBXiF51fYtFxmnO7EW-39" value="&lt;font style=&quot;font-size: 35px;&quot;&gt;&lt;b&gt;CRM&lt;/b&gt;&lt;/font&gt;" style="rounded=1;whiteSpace=wrap;html=1;fillColor=#ffe6cc;strokeColor=#d79b00;" vertex="1" parent="1">
          <mxGeometry x="1570" y="260" width="160" height="60" as="geometry" />
        </mxCell>
      </root>
    </mxGraphModel>
  </diagram>
</mxfile>
